<svg xmlns="http://www.w3.org/2000/svg" viewBox="0 0 1000 640"><defs><style>.cls-1{fill:#332364;opacity:0.9;}.cls-2{fill:#422b7a;}.cls-3{fill:#fff;}.cls-4{fill:#efefef;}.cls-5{fill:#e3e3e3;}.cls-6{fill:#442a72;}.cls-7{fill:#231f20;}.cls-8{fill:#65499d;}.cls-9{fill:gray;}.cls-10{fill:#c9c9c9;}</style></defs><title>asset-section03</title><g id="Layer_2" data-name="Layer 2"><g id="images"><path class="cls-1" d="M1000,640H0V0H488.69c-47.53,42.63-34.64,160.06-5.56,145.61,35.91-17.84,124,14.6,130.19,84.75,13.48,75.85,3.82,88.59,46.53,116.29s16.54,76.91,59.09,99.34,163.49-48.49,187.2,21.86c14.82,44,59.68,77,93.86,78Z"/><path class="cls-2" d="M0,640V0H437.4q9.8.81,19.5,1c-17,20.78-29.52,46.53-35.93,74.2-2.5,10.78-3.86,23.17,1.64,32.34,11.18,18.62,36.76,7.39,55.44,14.27,19.37,7.12,28.22,32.51,33.61,55.18s11.49,48.2,29.31,59.5c17.38,11,42.31,5.59,54.84,23.37,11.22,15.93,4.68,39.57-2.71,58.26s-15,41.39-5.24,58.54c14.68,25.73,44.24,17.63,66.77,24.86a40.73,40.73,0,0,1,15.29,8.91c18.36,16.81,22.56,46.35,41,63.2,25.08,23,65.63,8.25,90.58,31.38,20.25,18.76,22.24,55.43,42.16,74.63,14.39,13.87,50.58,3.74,57.51,60.4Z"/><path class="cls-3" d="M0,640V0H389.89c13.79,9.31,21.28,25.53,6,53.74-18.78,34.68-25.26,83.44-5.74,119.64,31.91,59.12,156.2,36,152.76,117.48-.8,18.65-12.75,34.1-15.87,52.44-15.43,90.54,21,117,91.44,113.43,34.95-1.75,58.44,7.91,59.35,53.2,1.92,95.61,131.69,84.49,160.53,130.07Z"/><path class="cls-2" d="M790.92,384S770.72,459,734,485.73L825.2,548S809.72,451.47,853,399.66Z"/><path class="cls-3" d="M916.83,257.71l-4,9.75-8.19,20-.68,1.62c-15.18,35.82-26.51,61.59-26.51,61.59l-76.2-24.9s6.07-27.48,15-65.35c.13-.57.27-1.14.4-1.72l5.2-21,2.53-10.23C833,201,851,180,866.82,167.91c.87-.67,1.74-1.31,2.61-1.94q2.12-1.54,4.19-2.94c15.22-10.26,27.7-14.49,27.7-14.49s7.59,10.79,13.81,28.07q.86,2.35,1.65,4.85.5,1.53,1,3.12C923.38,203.65,925.47,231.25,916.83,257.71Z"/><path class="cls-4" d="M916.83,257.71l-4,9.75-8.19,20-.68,1.62c-15.18,35.82-26.51,61.59-26.51,61.59l-38.1-12.45,62-189.68S935.38,200.92,916.83,257.71Z"/><rect class="cls-5" x="831.98" y="303.48" width="11.25" height="80.17" transform="translate(250.89 1033.05) rotate(-71.91)"/><polygon class="cls-6" points="862.11 413.66 776.44 385.67 783.49 369.38 785.46 364.85 788.74 357.28 790.7 352.75 797.75 336.46 873.96 361.36 870.04 378.67 868.95 383.48 867.13 391.53 866.03 396.35 862.11 413.66"/><polygon class="cls-7" points="866.03 396.35 783.49 369.38 785.46 364.85 788.74 357.28 790.7 352.75 870.04 378.67 868.95 383.48 867.13 391.53 866.03 396.35"/><path class="cls-8" d="M912.83,267.46l-8.19,20-.68,1.62-87.74-28.66c.13-.57.27-1.14.4-1.72l5.2-21Z"/><path class="cls-8" d="M887.73,268.66A24.39,24.39,0,1,0,857,284.27,24.39,24.39,0,0,0,887.73,268.66Z"/><path class="cls-9" d="M883.58,267.3a20,20,0,1,0-25.25,12.81A20,20,0,0,0,883.58,267.3Z"/><polygon class="cls-8" points="900.41 297.44 908 413 873.96 361.36 877.45 350.67 900.41 297.44"/><polygon class="cls-8" points="814.14 269.26 739.79 358.04 797.75 336.46 801.25 325.77 814.14 269.26"/><path class="cls-8" d="M841.87,349.85a251.75,251.75,0,0,1-22.6,49.81A248.81,248.81,0,0,1,853,296.31,252.07,252.07,0,0,1,841.87,349.85Z"/><path class="cls-10" d="M865.82,243.82a2.27,2.27,0,0,0-.88.28,2,2,0,0,0-.75,2,2.48,2.48,0,0,0,1.17,1.91c4.47,1.9,7.87,4.42,10.24,8.2s1.54,8.43-.47,12.22c-1.45,2.75-5.27,4.69-6.07,7.87-.93,3.68,5.67-.06,6.62-.89a19.34,19.34,0,0,0,6.22-10.9c1.8-9.76-4.78-20.82-15.46-20.75A4.3,4.3,0,0,0,865.82,243.82Z"/><path class="cls-8" d="M915.13,176.61c-6.76-1.71-13.73-3.73-20.82-6s-14.13-4.89-20.69-7.54c15.22-10.26,27.7-14.49,27.7-14.49S908.91,159.33,915.13,176.61Z"/><path class="cls-8" d="M916.79,181.46h0l-.93-.23h0c-7.46-1.83-15.14-4-22.87-6.55l-.18-.06c-8.12-2.65-15.95-5.56-23.37-8.65-.44.31-.87.63-1.31,1l-1.3,1h0c7.93,3.36,16.36,6.52,25.1,9.38l.17.06c8.35,2.72,16.63,5.06,24.68,7h0l1,.24Q917.27,183,916.79,181.46Z"/></g></g></svg>