<svg xmlns="http://www.w3.org/2000/svg" viewBox="0 0 473.5 642"><defs><style>.cls-1,.cls-3{fill:none;}.cls-1,.cls-2,.cls-3{stroke:#2d2e82;}.cls-1{stroke-linecap:round;stroke-linejoin:round;stroke-width:2px;stroke-dasharray:0 8;}.cls-2{fill:#fff;}.cls-2,.cls-3{stroke-miterlimit:10;}</style></defs><title>asset-section02-arrow</title><g id="Layer_2" data-name="Layer 2"><g id="Layer_3" data-name="Layer 3"><line class="cls-1" x1="20.95" y1="41.11" x2="441.11" y2="41.11"/><path class="cls-1" d="M1.06,21A20,20,0,0,0,21,41.11"/><line class="cls-1" x1="461" y1="61.21" x2="461" y2="321"/><path class="cls-1" d="M461,61.21a20,20,0,0,0-19.89-20.1"/><line class="cls-1" x1="1" y1="21" x2="1" y2="1"/><line class="cls-1" x1="20.95" y1="600.89" x2="441.11" y2="600.89"/><path class="cls-1" d="M1.06,621A20,20,0,0,1,21,600.89"/><line class="cls-1" x1="461" y1="580.79" x2="461" y2="321"/><path class="cls-1" d="M461,580.79a20,20,0,0,1-19.89,20.1"/><line class="cls-1" x1="1" y1="621" x2="1" y2="641"/><circle class="cls-2" cx="461" cy="321" r="12"/><polyline class="cls-3" points="466 318.5 461 323.5 456 318.5"/></g></g></svg>