<svg xmlns="http://www.w3.org/2000/svg" viewBox="0 0 161.4 668.4"><defs><style>.a{fill:none;stroke:#2d2e82;stroke-linecap:round;stroke-linejoin:round;stroke-miterlimit:10;stroke-width:1.4px;stroke-dasharray:0 6;}</style></defs><g transform="translate(-19.8 -2749.8)"><line class="a" y1="509.345" transform="translate(20.5 2829.327)"/><g transform="translate(20.5 3338.673)"><path class="a" d="M1.1,21c0,13.274,8.844,24.134,20,24.255" transform="translate(-1.1 -21)"/><path class="a" d="M0,0C0,13.274,8.844,24.134,20,24.255" transform="translate(160 48.509) rotate(180)"/><line class="a" x2="114" transform="translate(24 24.255)"/></g><g transform="translate(20.5 2780.818)"><path class="a" d="M0,0C0,10.945,10.726,19.9,24.255,20" transform="translate(20 24.255) rotate(90)"/><path class="a" d="M0,0C0,10.945,10.726,19.9,24.255,20" transform="translate(140 24.255) rotate(-90)"/><line class="a" x2="114" transform="translate(24 24.255)"/></g><line class="a" y1="24.255" transform="translate(180.5 2750.5)"/><line class="a" y1="24.255" transform="translate(180.5 3393.246)"/></g></svg>