<svg xmlns="http://www.w3.org/2000/svg" viewBox="0 0 132.32 20"><defs><style>.cls-1{fill:#fff;}</style></defs><title>Asset 2</title><g id="Layer_2" data-name="Layer 2"><g id="Layer_3" data-name="Layer 3"><path class="cls-1" d="M74.37,2.08a7.92,7.92,0,1,0,3.9,14.8v.55a.49.49,0,0,0,.49.49h3a.49.49,0,0,0,.49-.49V10A7.94,7.94,0,0,0,74.37,2.08ZM78.27,10a3.9,3.9,0,1,1-3.9-3.9A3.91,3.91,0,0,1,78.27,10Z"/><path class="cls-1" d="M124.4,2.08A7.93,7.93,0,0,0,116.49,10v7.43a.48.48,0,0,0,.48.49h3a.48.48,0,0,0,.48-.49V10a3.9,3.9,0,0,1,7.8,0v7.43a.49.49,0,0,0,.49.49h3a.49.49,0,0,0,.49-.49V10A7.93,7.93,0,0,0,124.4,2.08Z"/><path class="cls-1" d="M58.12,2.08a6.38,6.38,0,0,0-4.43,1.78,6.37,6.37,0,0,0-4.43-1.78,6.45,6.45,0,0,0-6.44,6.44v8.91a.49.49,0,0,0,.49.49h3a.49.49,0,0,0,.49-.49V8.52a2.43,2.43,0,0,1,4.85,0v8.91a.48.48,0,0,0,.48.49h3a.49.49,0,0,0,.48-.49V8.52a2.43,2.43,0,0,1,4.85,0v8.91a.48.48,0,0,0,.48.49h3a.49.49,0,0,0,.48-.49V8.52A6.45,6.45,0,0,0,58.12,2.08Z"/><path class="cls-1" d="M98.21,2.29a.49.49,0,0,0-.4-.21H94.56a.51.51,0,0,0-.46.32L90.52,12,86.94,2.4a.48.48,0,0,0-.45-.32H83.23a.49.49,0,0,0-.45.66L88.29,17.6a.48.48,0,0,0,.45.32H92.3a.49.49,0,0,0,.46-.32L98.27,2.74A.51.51,0,0,0,98.21,2.29Z"/><path class="cls-1" d="M106.68,2.08a7.92,7.92,0,0,0,0,15.84h3.37a.48.48,0,0,0,.48-.49v-3a.48.48,0,0,0-.48-.48h-3.37A3.88,3.88,0,0,1,103.34,12h10.77a.49.49,0,0,0,.49-.49V10A7.94,7.94,0,0,0,106.68,2.08ZM103.34,8A3.9,3.9,0,0,1,110,8Z"/><path class="cls-1" d="M25.05,0a4.8,4.8,0,0,0-3.11,1.13h0L16.28,5.89a.33.33,0,0,0-.12.24.33.33,0,0,0,.12.25L19.34,9a.33.33,0,0,0,.42,0l3.65-3.06a1.16,1.16,0,0,1,1.91.9v6.42a1.17,1.17,0,0,1-1.17,1.16,1.33,1.33,0,0,1-.44-.08.53.53,0,0,1-.21-.11L8,1.14H8A4.85,4.85,0,0,0,0,4.85v10.3a4.85,4.85,0,0,0,8,3.72H8l5.67-4.76a.33.33,0,0,0,.12-.24.33.33,0,0,0-.12-.25l-3.06-2.57a.33.33,0,0,0-.42,0L6.49,14.11a1.16,1.16,0,0,1-1.91-.9V6.79A1.17,1.17,0,0,1,5.75,5.63a1.33,1.33,0,0,1,.44.08.61.61,0,0,1,.21.11L22,18.86h0a4.85,4.85,0,0,0,8-3.72V4.85A4.85,4.85,0,0,0,25.05,0Z"/></g></g></svg>